<svg xmlns="http://www.w3.org/2000/svg" viewBox="0 0 48 36">
  <!-- Body -->
  <ellipse cx="22" cy="20" rx="14" ry="9" fill="#6d6d6d"/>
  <!-- Belly -->
  <ellipse cx="22" cy="23" rx="10" ry="5" fill="#9e9e9e"/>
  <!-- Head -->
  <ellipse cx="38" cy="16" rx="7" ry="6" fill="#757575"/>
  <!-- Ears -->
  <path d="M34 10 L32 4 L36 10 Z" fill="#6d6d6d"/>
  <path d="M40 10 L42 4 L38 10 Z" fill="#6d6d6d"/>
  <path d="M34.5 10.5 L33 6 L35.5 10.5 Z" fill="#e57373" opacity="0.7"/>
  <path d="M39.5 10.5 L41 6 L38.5 10.5 Z" fill="#e57373" opacity="0.7"/>
  <!-- Eyes -->
  <circle cx="40" cy="14" r="2" fill="#ff1744"/>
  <circle cx="40" cy="14" r="0.8" fill="#111"/>
  <!-- Nose -->
  <ellipse cx="44" cy="16" rx="1.5" ry="1" fill="#e57373"/>
  <!-- Whiskers -->
  <line x1="44" y1="15" x2="48" y2="13" stroke="#9e9e9e" stroke-width="0.5"/>
  <line x1="44" y1="16" x2="48" y2="16" stroke="#9e9e9e" stroke-width="0.5"/>
  <line x1="44" y1="17" x2="48" y2="19" stroke="#9e9e9e" stroke-width="0.5"/>
  <!-- Tail -->
  <path d="M8 20 Q2 14 4 8" fill="none" stroke="#6d6d6d" stroke-width="2.5" stroke-linecap="round"/>
  <!-- Legs -->
  <line x1="16" y1="28" x2="14" y2="34" stroke="#757575" stroke-width="2"/>
  <line x1="28" y1="28" x2="30" y2="34" stroke="#757575" stroke-width="2"/>
  <!-- Paws -->
  <ellipse cx="14" cy="35" rx="2.5" ry="1.2" fill="#757575"/>
  <ellipse cx="30" cy="35" rx="2.5" ry="1.2" fill="#757575"/>
</svg>